<?xml version="1.0" encoding="utf-8"?>
<!-- Generator: Adobe Illustrator 26.3.1, SVG Export Plug-In . SVG Version: 6.00 Build 0)  -->
<svg version="1.1" id="Layer_1" xmlns="http://www.w3.org/2000/svg" xmlns:xlink="http://www.w3.org/1999/xlink" x="0px" y="0px"
	 viewBox="0 0 864 864" style="enable-background:new 0 0 864 864;" xml:space="preserve">
<style type="text/css">
	.st0{fill:#010101;stroke:#000000;stroke-width:0.75;stroke-miterlimit:10;}
	.st1{fill:#010101;}
	.st2{fill:#FFFFFF;}
	.st3{fill:#1B1C1A;}
	.st4{fill:#846AA9;}
	.st5{fill:#EC7D7A;}
	.st6{fill:#BC2026;}
	.st7{fill:#EE2A7B;}
	.st8{fill:#444B51;}
	.st9{fill:#C35B4A;}
	.st10{fill:#E5D5DD;}
	.st11{fill:#EFA388;}
	.st12{fill:#AAB1C9;}
	.st13{fill:#FCBD74;}
	.st14{fill:#DF1F26;}
	.st15{fill:#673929;}
	.st16{fill:#E77A68;}
	.st17{fill:#6DB0C0;}
	.st18{fill:#F8D0BB;}
	.st19{fill:#674B6A;}
	.st20{fill:#EB8923;}
	.st21{fill:#E4C05E;}
	.st22{fill:#BF5A2B;}
	.st23{fill:#393D3C;}
	.st24{fill:#484162;}
	.st25{fill:#6A5B8E;}
	.st26{fill:#4E5150;}
	.st27{fill:#7B7F96;}
	.st28{fill:#E0B653;}
	.st29{fill:#ABADAD;}
</style>
<circle class="st7" cx="425.884" cy="306.336" r="299.548"/>
<g>
	<path class="st1" d="M669.367,698.696c-11.483,1.956-21.966,6.868-33.241,9.632c-12.545,3.028-25.232,3.641-37.939,1.966
		c-0.37-1.822,0.088-3.138,1.335-3.99c3.33-2.919,7.384-9.276,2.295-12.507c-0.279,2.648-0.71,4.955-2.853,6.717
		c-1.758-9.362,7.72-10.22,11.567-18.048c5.936-10.096-9.628-4.326-13.714-2.553c-0.99-2.143,0.288-2.978,1.484-3.71
		c5.188-2.558,10.501-11.546,0.335-9.247c-7.105,1.82-13.145,5.468-18.233,10.726c-0.832,0.86-1.507,1.985-3.047,1.501
		c-1.698-0.6-2.288,1.276-1.161,2.38c1.443,2.358,4.078,2.473,6.165,3.39c4.709-4.672,9.196-9.429,15.57-13.385
		c-1.365,3.687-4.268,6.041-3.469,9.605c-5.252,4.492-11.842,8.149-11.85,16.474c-1.928-0.551-2.816-2.476-4.699-2.707
		c0.31,6.49,3.989,10.871,9.271,11.229c0.897-1.465,0.582-3.823,2.975-3.914c4.379,1.161,1.573,8.523-2.172,8.645
		c-3.625,0.553-7.573-0.708-10.722,1.684c3.509,1.602,7.021,1.335,10.459,1.737c-2.639,5.132-6.039,6.785-10.895,5.415
		c2.95,9.444,14.078,5.104,17.679-1.424c0.499-0.881,0.825-1.914,1.857-2.59c4.156,2.811,8.213,6.319,13.381,6.734
		c5.178,0.416,10.155,1.881,15.31,2.213c0.67,0.043,1.437,0.44,2.017-0.351c-1.169-0.987-2.92-0.295-4.418-1.735
		c4.688-0.071,9.335,0.674,13.626-0.277c10.163-3.1,20.491-7.643,29.005-14.161c-5.498,1.39-9.384,5.889-14.916,7.02
		c5.145-4.387,13.391-5.805,17.964-10.284c2.082-2.871,6.559-2.461,7.358-6.611c-2.331,0.733-4.538,1.426-6.649,2.09
		C668.404,699.506,669.958,699.437,669.367,698.696z M604.224,682.223c-0.94,2.076-3.735,5.604-5.207,6.681
		C597.111,684.919,598.61,682.891,604.224,682.223z M587.39,697.868c-1.373-3.603,0.803-6.775,6.697-9.759
		C595.167,691.184,592.941,694.428,587.39,697.868z"/>
	<path class="st1" d="M388.031,785.107c-0.135,0.188-0.484,0.223-0.771,0.345c-1.226-1.343-1.196-3.796-3.86-4.259
		c0.319,2.463,3.21,5.954,0.637,7.475c-1.096,0.42-2.107-0.149-2.712-1.021c-1.405-2.377-1.358-5.144-3.058-7.533
		c-5.031,5.262,0.659,12.051,6.932,11.507c-0.16,2.671-0.948,4.965-2.341,7.024c-2.435,3.76-9.029,3.191-10.015-1.477
		c-0.198-3.151-3.297-6.199-2.029-9.157c2.344-5.765,6.128-10.477,10.381-14.914c1.7-1.774,2.679-4.19,1.418-6.466
		c-5.749-6.963-16.858,3.681-20.814,8.493c-2.376,2.56,0.544,4.078-0.378,6.022c-3.589,0.38-4.227-3.666-3.104-10.091
		c9.191-1.789,0.297-14.35,11.635-9.345c1.446,0.819,2.926,1.599,4.923,1.525c-0.149-5.659-0.675-11.052-1.393-16.431
		c-0.345-3.915,3.538-6.831-2.375-8.571c-2.168,2.572-3.317,6.94-7.633,6.217c-3.549-0.736-6.129,1.029-5.948,3.787
		c0.476,3.684-6.152,9.955-8.26,4.933c-4.368,7.683-2.581,16.997-7.058,24.677c-7.129,12.733-13.335,25.944-20.24,38.792
		c-2.081,3.872-4.516,7.386-8.588,9.439c-0.496,0.25-0.944,0.639-0.862,1.317c3.292,3.746,7.745,1.298,9.836-2.228
		c4.739-7.467,9.974-14.625,14.23-22.394c8.874-13.672,11.791-29.728,14.13-45.785c1.61,0.996,3.013,1.865,4.629,2.864
		c-2.401,4.002-4.806,8.342-5.723,13.379c3.222-1.819,3.936-5.634,6.578-7.977c3.937,12.578-8.637,10.869,8.758,22.163
		c0.109,2.046-1.993,3.347-1.842,5.245c0.368,4.607-0.759,8.922-2.097,13.288c3.695-3.41,6.125-7.582,8.016-12.15
		c0.768,12.846,18.959,15.828,19.423,1.053c0.462-2.845-1.3-6.808,1.325-8.828c1.856-1.106,3.885,3.614,7.729,1.728
		C401.522,786.426,392.837,777.287,388.031,785.107z M379.336,765.897c0.835,3.079-1.768,9.404-4.821,11.906
		c-0.738-1.735,1.36-4.351-1.263-5.157C368.047,770.64,376.692,765.428,379.336,765.897z M370.105,751.512
		c0.592,2.757,0.33,4.975-0.097,7.377c-2.43-0.418-4.71-1.374-7.001,0.145C364.663,755.939,367.607,754.261,370.105,751.512z
		 M368.854,745.909c-0.676,4.071-4.099,4.961-6.539,6.665C364.532,750.53,364.43,746.277,368.854,745.909z M363.279,780.368
		c-1.364-2.925-0.175-4.524,5.833-7.912C367.574,775.914,364.935,777.654,363.279,780.368z"/>
	<path class="st1" d="M550.51,717.859c-4.13,1.876-7.694,4.68-11.661,6.828c-1.746,0.945-4.685,0.938-4.688,4.28
		c-0.002,2.921,0.158,5.807,2.106,7.983c2.343,2.616,1.794,5.581,1.736,8.519c-0.725,4.493-8.031-0.892-9.78-2.571
		c-3.379-3.676-3.44-4.388-8.998-3.497c5.431-5.441,8.607-11.595,12.977-16.851c4.54-4.251,0.186-5.043,2.945-7.686
		c3.362-3.654,6.085-7.92,10.298-10.763c1.391-0.939,2.061-2.395,1.683-3.91c-0.224-1.648-2.918-0.669-3.248-1.068
		c-3.394-6.949-7.923-1.509-12.009-1.434c0.691-3.035,7.376-11.61,2.609-12.51c-1.59-0.247-3.316-1.136-5.072,0.809
		c-1.503,1.666-4.078,2.363-6.225,3.513c-1.828-5.927-3.491-6.792-9.22-5.007c0.304,2.388,2.782,1.292,4.005,2.391
		c-0.561,3.629-5.236,9.508-1.781,12.346c1.71,1.031,2.907-0.351,3.628-1.675c1.72-3.157,5.07-3.808,8.323-6.127
		c-3.172,12.049-4.724,10.941-12.184,19.148c-1.776-0.563-1.903-2.184-3.146-3.117c-3.572,2.379,1.858,5.587,3.745,7.055
		c1.626,1.04,2.808,0.766,3.611-1.018c3.002-6.669,9.49-9.032,15.241-12.297c0.352-0.2,0.856-0.412,1.322,0.057
		c0.107,1.42-0.397,2.508-1.76,3.154c-8.119,3.847-13.89,10.45-19.894,16.814c-1.858,1.225-1.247,7.833,1.208,5.887
		c5.986-4.976,10.628-11.342,16.922-16.149c-1.035,7.056-10.524,8.945-9.405,16.715c-3.721,6.168-6.565,12.952-12.368,17.656
		c-2.166,1.756-3.009,3.994-3.058,6.761c1.681,0.158,1.92-0.902,2.465-1.599c2.578-3.298,5.65-6.012,9.421-7.889
		c1.813-0.903,3.259-0.715,4.724,0.918c4.035,4.279,15.828,10.067,17.403,0.923c1.832-3.981-6.059-14.127,0.749-12.977
		c-1.152,5.51,9.567-1.471,17.57,2.755C568.5,737.189,562.464,712.108,550.51,717.859z M556.245,724.561
		c-4.381,2.956-9.023,5.163-14.897,5.137C544.74,719.857,559.548,719.501,556.245,724.561z"/>
	<path class="st1" d="M496.135,721.893c-0.007-0.057-0.321-0.079-0.524-0.124c-1.94,7.586,0.113,15.768,1.799,23.278
		c0.882,3.469,0.819,9.023-2.113,10.593c-4.263,2.783-10.311,9.556-15.149,5.054c-15.078-18.174,17.844-30.975,5.406-35.267
		c-2.251,1.924-3.042,5.456-6.449,6.292c-0.941-1.455-1.793-2.772-2.748-4.248c10.04-3.743,18.576-11.899,19.906-22.811
		c0.413-2.433-0.798-3.548-3.089-4.17c-6.53-0.533-12.852,4.89-19.017,7.359c-0.555-2.843,0.926-6.042-1.443-7.767
		c-2.607-1.186-8.352,1.272-9.499,4.164c1.885,1.428,4.219,1.079,6.323,1.352c0.655,7.33-6.007,10.138-8.625,15.638
		c-1.172-1.279-1.319-3.441-3.232-2.916c-1.409,0.577-0.654,1.979-0.302,2.973c2.262,4.281,1.613,8.887,7.829,8.933
		c-4.852-8.974,18.085-24.792,25.18-23.818c-2.168,4.157-3.966,8.488-7.118,12.024c-4.107-2.953-11.486,3.011-12.947,7.17
		c-1.367,1.978,0.918,3.493,2.722,2.314c0.533-0.317,0.808-1.094,1.66-0.908c0.278,0.854-0.404,1.607,0.014,2.644
		c3.231,7.636-2.702,15.223-8.823,19.372c-1.39,0.884-2.648,1.994-2.657,3.793c4.27-3.894,9.684-6.159,13.579-10.507
		c-0.267,1.974-0.651,3.813-1.489,5.414c-4.097,7.824,3.459,19.84,12.413,17.749c4.658-0.501,7.432-4.295,11.676-5.775
		c5.382-2.205,8.044-11.015,4.609-15.775C500.351,737.067,497.73,729.527,496.135,721.893z"/>
	<path class="st1" d="M421.902,747.882c-0.952-3.587-1.801-6.654-2.573-9.741c-0.591-3.271-4.217-2.184-6.337-0.844
		c3.023,2.727,2.411,6.497,2.787,9.956c0.376,3.461-0.213,4.022-4.307,5.009c-2.53-5.688-1.631-15.766-10.583-10.276
		c3.481,2.823,4.227,7.081,5.955,10.839c3.014,4.317-14.95,9.173-18.556,16.985c-0.534,0.798-0.916,1.828-0.038,2.57
		c0.781,0.66,1.628,0.041,2.28-0.474c5.643-4.421,10.316-9.17,17.524-11.396c-2.886,3.747-0.238,6.51,1.293,9.172
		c-3.46,4.102-8.082,3.118-12.527,3.586c4.833,2.283,13.825,4.047,17.525-0.078c0.911-1.598,2.057-1.572,3.565-0.943
		c2.766,0.794,10.551,3.994,11.987,0.468c0.372-2.283-3.585-3.338-4.939-4.87c-0.897,1.105-0.525,2.015-1.08,1.563
		c-2.073-0.789-4.145-1.579-6.44-2.452c2.028-3.121,3.459-6.078,3.735-9.425c0.16-1.938,1.22-2.703,3.022-3.063
		c4.686-1.348,13.161-3.057,14.08-8.843C432.789,747.937,427.084,743.944,421.902,747.882z M411.564,765.011
		c0.199-4.229,1.216-6.786,2.908-7.309C414.856,762.08,413.673,765.053,411.564,765.011z"/>
	<path class="st1" d="M570.33,698.147c-1.112-1.285-0.967-2.077-0.251-3.408c2.026-3.766,3.231-7.826,3.336-12.121
		c0.122-4.951-4.312-8.138-8.56-6.281c-0.803,0.351-1.621,0.696-1.637,1.706c0.466,2.651,5.358,0.672,3.938,5.536
		c-1.392,4.792-3.013,9.49-5.4,13.892c-0.431,0.796-1.356,1.504-0.701,2.52c2.346,2.5,8.93-3.372,9.567,5.997
		c-0.569,6.984,1.862,14.203-0.444,20.952c-0.429,1.182-1.081,2.459-0.169,3.785C579.021,730.751,575.061,702.355,570.33,698.147z"
		/>
	<path class="st1" d="M341.169,744.58c-1.189-0.603-1.966,1.131-2.618,2.112c-1.339,1.785,1.14,4.148,2.814,2.575
		c0.772-0.521,1.366-0.122,2.087,0.144c9.433,3.515,11.661-12.166,20.379-14.266c-3.531,6.391-9.361,10.026-13.198,15.92
		c5.509-3.179,8.149-8.864,14.402-11.093c2.219-0.926,3.511-3.071,5.295-4.585c1.984-2.756-2.766-5.352-5.231-4.454
		c-3.317,0.667-6.205,2.077-8.481,4.666c-0.638,0.726-1.08,1.74-2.948,2.208c2.675-3.688,1.69-7.568,2.447-11.176
		c0.172-0.818,0.496-1.812-0.273-2.392c-2.626-1.955-8.373-2.94-9.007,1.423c1.399,1.801,4.558,1.911,4.377,4.73
		c1.211,6.442-3.496,9.594,0.883,10.029C348.395,742.179,346.387,747.224,341.169,744.58z"/>
	<path class="st1" d="M453.946,747.378c-6.81-5.843-14.62,3.375-14.597,10.323c-0.095,3.093,1.796,5.912,4.458,7.815
		c1.836,1.313,8.441-0.537,9.432-2.524c1.16-2.325-0.004-8.215-2.056-10.106c-0.83-0.765-1.849-1.634-2.963-0.677
		c-1.234,1.305,0.946,2.611,1.153,3.982c1.956,3.397-3.339,4.741-4.314,1.432c-2.754-10.306,16.097-12.457,12.809,4.556
		C463.685,757.366,459.446,749.889,453.946,747.378z"/>
	<path class="st1" d="M385.847,748.691c-0.095-4.067-6.826-5.249-5.586-0.102c0.277,3.902-1.88,7.121-3.026,11.143
		C382.269,757.666,385.628,754.152,385.847,748.691z"/>
	<path class="st1" d="M502.953,406.907c6.906-4.981,14.052-9.68,19.202-16.705C516.103,396.16,508.854,400.764,502.953,406.907z"/>
	<path class="st1" d="M672.28,400.36c2.293-1.368,4.362-2.981,5.83-5.267C675.69,396.334,673.521,397.849,672.28,400.36z"/>
	<path class="st1" d="M75.868,739.367c0.698-0.304,1.094-0.888,0.549-1.521c-0.97-1.127-0.807-2.829-2.372-4.188
		C73.773,735.416,73.657,740.01,75.868,739.367z"/>
	<path class="st1" d="M488.085,250.708c-3.76-2.243-21.671,2.049-27.198,6.102C468.528,266.925,481.955,258.537,488.085,250.708z"/>
	<path class="st1" d="M478.898,219.898c-0.782,5.006,2.194,8.827,6.77,9.834c2.372,0.753,3.665-1.324,4.959-2.936
		c2.301-2.865,1.956-9.126-0.693-12.601C485.551,208.883,477.669,213.674,478.898,219.898z M484.658,218.208
		c0.933-1.284-0.718-3.644,1.789-4.128c0.896-0.173,1.901,0.394,1.875,1.307C488.257,217.608,485.865,217.151,484.658,218.208z"/>
	<path class="st1" d="M439.944,230.962c-0.107,4.416,1.581,9.123,6.219,9.917c1.835,0.546,3.226-1.193,4.334-2.577
		c2.228-2.783,1.452-6.87-1.866-10.547C445.956,223.632,439.17,226.145,439.944,230.962z"/>
	<path class="st1" d="M476.769,219.86c1.562-2.962,1.434-6.695,4.862-8.288c6.116-3,14.079,0.017,15.207,7.209
		c2.522-2.439,0.139-5.738,2.784-7.864c-3.641-0.896-6.858-1.941-10.159-2.436C483.073,206.902,472.91,212.127,476.769,219.86z"/>
	<path class="st1" d="M459.532,231.494c-0.909,3.877-4.468,8.172-0.028,11.207C456.443,238.848,460.029,235.263,459.532,231.494z"/>
	<path class="st1" d="M482.418,205.43c-4.024,0.413-6.642,2.704-8.193,6.364C476.362,208.906,479.178,206.926,482.418,205.43z"/>
	<path class="st1" d="M333.259,389.083c-4.945-7.389-7.653-15.806-10.994-24.664c-0.883,8.946,21.302,46.764,28.306,48.301
		c-12.828-13.111-18.875-30.577-24.793-47.546C326.935,373.571,330.922,381.057,333.259,389.083z"/>
	<path class="st1" d="M373.171,428.008c-19.536-23.639-27.871-51.898-35.817-80.027C334.805,359.52,362.8,422.948,373.171,428.008z"
		/>
	<path class="st1" d="M346.504,335.107c-0.146-4.605-1.636-9.127-0.856-14.477c2.173,8.674,2.43,16.475,6.973,23.931
		c-2.687-8.342-4.155-16.937-5.437-25.641C341.119,319.592,345.57,331.357,346.504,335.107z"/>
	<path class="st1" d="M338.222,314.962c-9.618,4.379-3.623,12.275-1.41,18.92C336.542,327.622,334.449,321.35,338.222,314.962z"/>
	<path class="st1" d="M335.243,377.694c-5.087-9.976-6.775-20.625-9.442-31.172C325.699,351.992,330.155,376.204,335.243,377.694z"
		/>
	<path class="st1" d="M352.389,409.33c-6.948-7.353-10.914-16.289-13.688-25.835C336.6,386.819,348.518,411.985,352.389,409.33z"/>
	<path class="st1" d="M330.127,336.069c-0.213-4.847-0.83-9.669-1.168-14.519C327.8,326.512,328.759,331.303,330.127,336.069z"/>
	<path class="st1" d="M341.4,315.118c-2.989,1.69-3.4,5.778-1.368,11.403C340.418,322.385,339.315,318.786,341.4,315.118z"/>
	<path class="st1" d="M313.028,431.718c1.074,2.541,2.228,3.993,4.847,4.547C316.893,433.914,315.718,432.485,313.028,431.718z"/>
	<path class="st1" d="M705.838,376.501c-1.118-4.055-0.808-8.317-1.681-12.4C702.336,367.262,703.223,374.174,705.838,376.501z"/>
	<path class="st1" d="M684.197,382.941c0.227-3.441,0.572-6.895-1.508-10.048C683.074,376.242,682.44,379.776,684.197,382.941z"/>
	<path class="st1" d="M802.601,325.545c0.126-0.169,0.222-0.402,0.266-0.742c-0.4-0.225-0.779-0.438-1.141-0.638
		c-1.277-1.727-2.975-2.934-5.172-3.142c-3.053-0.29-5.56,1.705-6.36,4.609c-0.331,1.201-0.487,2.352-0.637,3.478
		c-0.542,0.549-1.152,1.113-1.864,1.692c-10.866,9.5-22.088,18.723-33.66,27.379c-1.77,0.318-3.25,1.439-4.085,3.015
		c-0.591,0.432-1.178,0.871-1.771,1.3c-1.494-1.235-2.906-3.743-4.762-0.537c-2.827-1.685-3.389-1.267-4.546,3.431
		c-1.901-4.84-8.053,0.083-11.432,0.577c-2.763-3.371,6.597-6.77,8.088-10.792c-2.897,2.109-5.793,4.218-8.914,6.49
		c-3.015-14.265-4.833-27.922-8.788-41.818c-0.522-2.057-1.803-2.561-3.573-1.3c-7.692,7.579-12.023,18.135-13.366,28.848
		c-0.557,5.692-1.912,7.464-7.098,8.675c-2.743-3.598-14.091-21.026-18.114-20.034c-2.704-0.172-1,16.323-0.585,18.557
		c1.825,8.573,2.039,17.007,0.519,25.594c-0.592,3.344,0.567,6.659,1.196,10.129c-4.017,0.872-7.802,1.595-11.554,3.288
		c2.09,1.417,7.569-1.267,10.14-1.701c4.331-1.381,3.924,6.52,9.819,5.954c-1.142,1.713-2.491,2.19-4.056,1.979
		c-4.855-0.246-12.095,2.319-12.494,7.758c0.001,1.922-0.519,3.214-1.847,4.386c-0.066,0.798,0.765,0.845,1.343,0.712
		c0.381-0.027,0.745,0.039,0.971,0.625c-4.201,3.547-9.11,4.152-12.98,8.772c-3.205,4.576-8.695,7.608-13.357,11.091
		c-10.033,6.999-19.643,14.205-29.564,21.254c-1.439,0.941-2.838,1.9-4.165,2.932c-0.695,0.485-1.385,0.973-2.084,1.456
		c-2.336-11.542-11.013,4.488-17.583-0.594c-10.434-2.501-19.359,6.236-22.856,2.672c-3.007-3.019-6.891-4.527-10.089-7.125
		c-1.537-1.249-2.244-2.596-2.366-4.519c-0.326-5.136-2.067-9.852-4.633-14.268c-0.97-1.669-0.068-6.792,1.654-7.489
		c1.685-0.682,2.234-1.801,2.395-3.421c3.584-22.623-5.637-43.429-8.797-65.383c-0.143-16.212-7.358-32.285-20.652-41.854
		c-0.453-0.365-0.936-0.964-2.028-0.542c8.507,15.878,12.881,33.675,11.814,51.713c-1.971,13.47-9.041,26.312-19.802,34.565
		c-3.703,3.033-9.617,2.922-11.414,8.462c-1.694-0.867-2.593-2.066-3.267-3.84c8.982-6.677,29.137-20.978,30.397-32.165
		c-6.939,12.58-17.977,21.365-29.074,29.945c-1.873,1.34-1.871,1.343-3.063-0.765c9.95-3.7,35.148-26.09,32.349-37.329
		c-2.226,6.921-4.955,12.785-9.743,17.448c4.514-7.213,8.771-15.054,10.046-23.508c-1.818-11.389-4.22-22.776-7.829-33.741
		c-0.94-2.375-0.315-5.945-2.249-7.095c-4.566-2.737,0.927-3.8,0.281-5.855c-1.601-1.724-2.723-4.196-4.97-4.867
		c-6.209-2.094-0.507-10.21-6.57-13.548c-0.835-0.544-1.844-1.364-1.542-2.509c2.016-4.532-0.664-19.678,7.454-16.959
		c3.799,0.555,6.712-1.54,10.428-2.643c-1.815,4.223-5.118,6.688-8.668,9.655c17.499-3.566,24.726-29.224,24.756-44.9
		c-0.05-7.347-2.79-14.14-3.461-21.336c-0.428-4.592-3.198-8.653-3.648-13.281c-0.498-5.12-1.925-9.98-3.971-14.647
		c-7.28-18.987-24.753-32.459-45.408-33.108c-1.981,0.194-3.926,0.223-4.581-2.446c-1.025-2.079-4.486-1.598-6.121-3.192
		c-2.066-1.726-4.315-2.957-7.19-2.324c4.694-18.52-1.514-47.236-25.406-44.801c-5.435,0.648-9.238-1.411-12.418-5.405
		c-3.075-5.066-17.051-4.131-22.519-3.499c-10.083,1.335-7.343,8.991-4.27,15.812c2.924,8.387,7.102,15.76,15.49,19.926
		c6.474,4.466,12.211,10.065,19.001,14.154c1.342,0.854,2.719,1.739,4.185,3.649c-6.112-3.384-11.22-1.335-16.98-3.908
		c-13.063-7.093-16.548-8.726-28.571,1.759c-6.541,5.159-5.247,14.526-10.686,20.706c-3.118,4.041-5.641,8.637-1.525,13.715
		c3.708,10.03,20.01,14.884,29.529,10.782c0.676-0.315,1.373-1.014,2.493-0.503c-2.339,5.243-3.975,14.105-1.078,19.407
		c0.478,0.884,0.203,1.506-0.545,2.19c-12.873,10.857-30.772,22.597-47.809,14.259c3.58,4.117,8.182,4.938,11.772,7.381
		c3.854,2.623,8.208,2.745,13.324,2.757c-6.34,4.879-11.962,3.448-17.863,0.599c9.136,4.985,18.129,9.933,23.408,19.416
		c-2.786-0.587-4.104-3.356-6.603-4.638c3.01,8.093,11.64,11.442,19.397,13.068c4.459,0.911,5.052,1.79,3.612,6.093
		c-1.128,4.335-5.373,3.667-8.954,3.651c1.441,1.531,4.228-0.241,5.099,2.602c4.969-3.141,11.375-2.424,16.273-6.483
		c-0.001,1.402-1.873,1.292-1.102,2.807c2.199,1.066,4.96,0.759,7.597,1.509c-3.043,2.444-5.893,1.179-8.777,0.419
		c5.766,3.395,12.327,2.475,18.553,3.461c-1.29,2.267-3.503,2.282-5.546,2.441c0.029,1.146,1.49,0.649,1.437,1.517
		c-0.287,1.285-2.302,0.822-2.13,2.373c0.176,0.149,0.364,0.394,0.444,0.363c4.251-1.661,8.833-2.322,12.789-4.948
		c2.98-1.978,6.273-4.01,10.242-2.212c3.514,1.592,7.13,2.904,10.888,3.81c1.606,0.387,2.669,1.25,2.549,3.34
		c-40.875-14.641-10.329,6.133-26.1,6.237c-9.618-1.382-14.06,2.451-18.115,5.064c-0.611-0.24-1.225-0.467-1.844-0.679
		c0.088,0,0.176-0.001,0.264-0.001c-0.224-0.05-0.447-0.091-0.67-0.139c-3.053-1.012-6.206-1.63-9.511-1.447
		c-0.144,0.008-0.286,0.021-0.43,0.03c-22.074-1.598-43.26,6.852-63.15,16.619c-5.083,1.672-6.115-5.967-14.804-1.276
		c-12.156,7.86-25.284,14.038-37.946,21.052c-3.072,1.674-5.813,3.793-6.825,7.505c-2.122,10.026-7.567,18.99-8.343,29.311
		c-0.687,12.171-3,24.616-1.186,36.703c7.011,17.252,15.053,33.669,29.019,46.497c-3.643-0.789-5.768,1.497-8.468,1.915
		c-8.47,1.313-16.552,3.523-22.854,9.867c-12.146,7.111-23.873,18.079-23.856,33.225c-0.138,15.983,2.99,31.868,8.057,47.013
		c3.847,8.954,8.989,17.333,11.86,26.717c4.233,8.193,9.52,16.14,16.223,22.565c6.467,6.099-3.478,13.819,2.222,24.151
		c0.988,2.207,3.118,3.538,4.187,5.641c2.334,4.652,11.19-0.65,15.531-0.148c8.901-0.717,17.828-1.095,26.745-1.615
		c0.579-0.034,1.116,0,1.494,0.513c-6.46,4.001-10.473,10.386-15.448,15.859c0.911-3.197,3.575-5.259,5.057-8.101
		c-4.436,2.4-7.072,6.221-8.404,11.172c-1.518-0.591-2.634-2.577-4.142-1.123c-1.421,1.369,1.193,2.011,0.981,3.397
		c-0.396,0-0.917,0.151-1.071-0.024c-4.401-3.833-10.805,3.491-14.369,5.865c2.536-3.435,5.701-6.068,9.794-7.569
		c-9.017-1.387-16.382,6.772-15.814,15.637c-0.003,0-0.007,0-0.01-0.001c-0.966-7.901-40.798-4.197-48.865-5.462
		c-42.546,2.221-81.714,20.227-117.426,42.552c-19.591,11.756-40.168,22.49-57.251,37.922c-0.273,0.252-0.399,0.633,0.012,1.105
		c0.993,0.412,1.631-0.385,2.325-0.963c30.04-23.773,64.265-41.625,98.162-59.156c15.339-8.385,32.13-12.375,48.959-15.8
		c11.144-2.268,22.536-4.697,34.145-2.696c7.694-0.302,16.273-0.129,23.164-0.167c-14.756,2.148-32.145,5.269-45.044,14.396
		c-7.248,5.416-15.011,9.969-23.833,12.463c-1.966,0.745-4.435,1.615-6.068,2.862c-1.377,3.658-5.101,2.654-7.594,4.063
		c11.755-8.402,23.921-16.062,37.573-21.196c-18.441,3.227-35.581,10.209-49.982,22.437c-1.408,1.156-2.501,2.3-1.155,4.252
		c-6.335,3.966-13.628,5.609-18.392,11.702c-8.292,3.247-17.302,5.694-25.716,9.025c-16.853,4.896-32.123,14.073-43.372,27.631
		c-0.605,0.679-1.084,1.658-2.529,1.6c1.29-2.302,2.581-4.396,4.367-6.198c10.814-10.448,23.135-21.074,38.099-24.234
		c0.972,1.024,1.888,0.396,2.815-0.041c8.865-3.434,17.091-8.178,25.992-11.515c6.309-2.006,12.291-5.42,16.307-10.381
		c6.667-8.235,15.196-13.58,24.462-17.559c9.575-4.706,20.145-7.176,29.984-11.397c0.39-0.151,0.934-0.277,0.717-1.121
		c-12.378,2.28-23.559,9.364-35.972,11.111c-8.258,3.62-15.198,8.979-21.468,15.32c-1.809,1.83-3.753,3.616-6.168,4.384
		c-10.122,4.102-20.403,7.475-30.932,10.309c-6.972,3.082-13.475,7.106-20.327,10.363c-14.807,7.039-27.203,16.693-36.185,30.517
		c-1.573,2.421-3.95,3.906-6.26,5.527c2.655-4.183,7.124-7.333,7.621-13.044c-1.253,0-2.04,0-2.817,0
		c-0.056-1.068,1.233-1.567,0.792-2.855c-6.352,4.785-12.213,9.996-17.962,15.343c0.152-1.566,1.976-1.996,1.993-4.331
		c-7.006,6.229-10.68,13.512-12.017,22.138c1.11-0.16,1.07-1.623,2.384-1.745c3.288,2.699,4.771-1.196,8.089-2.186
		c-1.515,4.327-11.748,5.29-10.162,9.864c1.961,3.245,4.779,0.044,7.361-0.405c-0.398,1.021-1.677,1.461-1.47,2.63
		c4.61,5.674,6.928-0.59,11.577-2.502c-0.715,1.567-1.691,2.313-2.689,3.009c-3.348,2.334-5.896,5.53-8.909,8.225
		c-0.713,0.638-1.426,1.464-0.352,2.352c3.456,2.717,11.485-17.095,19.447-12.29c-8.939,8.507-20.002,14.445-25.028,26.016
		c-0.603,2.094,2.737,6.148,4.177,7.924c2.811-1.978,5.249-4.167,8.167-5.092c-0.478,4.506-4.777,4.436-7.515,6.661
		c0.991,0,1.981,0,2.984,0c-0.131,2.945-0.036,3.027,4.227,3.53c-4.556,3.258-9.416,5.278-13.752,8.173
		c6.29-1.028,11.798-4.38,17.205-7.56c1.406-0.861,2.801-1.549,4.776-1.398c-3.319,5.195-9.246,6.152-13.522,9.868
		c3.736,0.039,5.946,2.395,8.288,4.306c4.43,3.921,12.062-3.107,16.961-4.427c0.951-0.437,1.861-1.024,2.856-0.15
		c4.839,3.358,26.576-9.007,33.119-9.6c-1.115,1.424-0.494,2.193,1.092,2.559c-6.854,5.488-15.316,8.068-23.897,9.404
		c-3.044,0.402-6.21,0.523-8.386,3.447c4.815,4.395,10.387,2.727,15.867,2.415c-7.089,5.395-13.823,2.78-15.728,6.251
		c2.264,1.339,4.871,0.43,7.152,1.322c-5.305,1.855-10.663,1.641-16.082,0.437c4.416,1.552,3.239,4.669,8.419,4.122
		c11.998-1.152,23.177-4.839,33.377-11.223c7.581-4.745,14.483-10.464,21.59-15.879c2.529-1.927,2.549-1.972,4.954-1.092
		c-14.85,10.399-28.976,21.363-45.466,28.722c0.961,1.181,1.896-0.255,2.732,0.305c0.191,1.117-1.298,1.635-0.948,2.924
		c6.082,0.07,9.882-4.781,15.396-7.424c-3.253,4.009-1.4,6.666-3.788,6.09c-0.672-0.178-1.164-1.081-2.231-0.401
		c0.72,1.255,0.997,3.472,3.082,2.31c4.304-2.398,9.253-3.103,13.525-5.517c0.632-0.357,1.39-0.939,2.259-0.476
		c-6.759,5.829-14.599,9.374-23.308,11.209c11.733-0.176,22.643-3.552,33.373-7.785c-5.942,4.941-13.226,7.803-18.791,13.219
		c6.856-2.229,12.388-6.799,18.612-10.53c-0.573,1.506-2.24,1.994-2.364,3.547c2.16,0.239,3.744-1.725,6.07-1.33
		c-3.527,3.825-8.244,4.648-12.583,6.078c-0.471,0.887,0.992,0.483,0.673,1.215c-0.899,1.008-2.676,0.702-3.452,2.145
		c6.191,1.124,5.281-4.612,16.808-1.878c5.507,1.295,8.358-3.614,12.976-5.294c2.814,10.187,28.454-8.815,33.524-12.094
		c-3.402,6.873-8.705,12.647-10.938,20.274c7.514-2.488,8.629-10.268,13.394-15.275c0.072,1.665-1.314,2.652-0.615,4.309
		c3.924-4.546,5.106-10.562,9.331-14.814c8.994-8.974,17.868-18.067,27.43-26.469c14.675-12.068,24.369-28.585,34.181-44.562
		c16.708-26.052,29.565-54.025,40.614-82.863c1.121-2.588,2.641-3.597,5.285-3.681c3.145-0.1,5.847-1.888,8.842-2.637
		c3.059-1.681,2.237-7.56,3.385-10.599c0.902-0.703,2.442,0.198,2.912-1.278c0.047-1.37-1.645-1.449-1.971-2.766
		c10.208-0.895,15.072-3.325,23.425-9.759c-1.868-0.528-2.639,1.015-3.906,0.648c1.806-2.707,6.341-2.859,6.433-7.784
		c0.333-0.445,2.211-0.51,2.312-2.539c-2.63-0.585-4.742,2.012-7.559,1.403c0.746-1.432,1.911-1.921,2.994-2.357
		c2.878-1.16,5.156-3.229,7.213-5.339c3.332-3.525,8.012-5.238,11.471-8.488c11.087-9.646,50.809,28.498,64.588,32.834
		c13.56,6.753,24.33,20.449,40.209,21.818c3.869-0.19,7.566-2.315,11.391-1.624c6.121,1.106,12.058,1.876,17.741-1.499
		c2.148-0.439,2.813,1.063,4.256-1.57c6.138-5.007,13.508-9.225,15.44-17.811c4.452,2.481,8.091,5.415,13.163,6.119
		c10.958,3.396,17.236-2.584,22.575-11.525c11.064-18.041,16.444-39.095,14.745-60.083c-6.214-24.558-23.619-44.5-43.042-59.989
		c2.481-1.397,5.895-0.583,6.038-4.19c10.356,1.516,2.643-6.69,10.37-8.323c6.765-2.792,1.978-3.316,6.66-8.924
		c0.723,0.743,0.038,1.898,1.293,2.323c0.565-2.289,0.452-4.64,1.798-7.236c1.414,4.887,5.364,4.424,8.654,5.001
		c3.105,0.545,6.211,3.95,9.355,0.249c1.061,0.12,1.214,1.54,2.435,1.455c0.818-3.297,4.906-3.009,6.2-5.728
		c1.607-6.941,10.254-0.028,10.327-5.284c-0.044-1.449-0.505-2.981,0.349-4.35c5.621,0.195,7.064-0.35,8.977-3.423
		c0.377-0.606,1.15-1.327,0.429-2.004c-3.584-3.804,0.941-10.089-2.332-13.977c5.815-3.783,11.669-7.487,17.458-11.269
		c1.77-0.434,3.539-0.867,5.309-1.301c1.726-0.423,3.397-0.783,4.852-1.555c1.894,0.074-0.594,2.537,0.749,3.044
		c1.668,0.186,3.399-0.627,5.136,0.286c4.928,2.591,9.557,5.783,15.219,7.225c-0.76,2.398-1.563,4.783-2.402,7.154
		c-0.545,1.381-1.077,2.74-1.6,4.102c-0.413,1.076-1.199,1.027-2.153,1.272c-4.899,1.26-9.544,2.641-12.498,7.614
		c-7.694,12.953-13.491,26.899-21.221,39.826c-4.975,6.137-1.83,13.885,2.643,19.201c9.156-3.912,18.007-7.754,26.917-11.453
		c1.854-0.77,3.165-1.784,4.065-3.6c3.085-6.234,6.416-12.348,9.408-18.625c1.838-6.21,16.219-24.801,12.912-29.034
		c-6.989-9.821-2.545-9.409-15.16-6.094c1.189-14.466,14.979-13.683,24.935-8.786c8.479,2.857,7.257,12.115,19.5,10.9
		c0.339-0.029,0.77-0.095,0.963,0.53c-17.295,16.17-39.144,32.638-43.879,57.166c-2.74,15.907,9.496,34.09,26.536,34.028
		c7.058-0.117,25.726-5.068,25.987-13.446c0.418-6.875-5.975-10.205-11.62-7.126c-7.822,6.064-20.838,8.081-24.961-3.389
		c-1.897-5.229-3.569-10.87-1.026-16.048c1.706-4.34,4.109-8.438,7.383-11.906c4.245-4.497,7.732-9.961,13.58-12.535
		c7.881-3.337,13.475-9.39,19.837-14.89c0.433,1.112-0.166,1.58-0.655,1.921c-4.652,3.245-7.83,8.119-12.567,11.282
		c-1.74,1.162-2.865,2.956-3.87,4.793c-2.872,3.845-7.647,17.54-11.898,17.826c-1.723,0.191-2.919,1.521-2.958,3.527
		c16.624,6.573,6.386,0.37,24.242-11.003c2.517-1.866,5.241-3.296,8.537-3.226c3.28,0.327,4.908-2.77,7.592-3.909
		c7.963-2.849,13.536-8.646,18.498-15.139c7.762-10.372,3.192-24.438,4.019-36.263c8.536-37.902,5.209-32.906-1.992-68.737
		c3.054,2.8,9.975,6.306,11.913,1.081c1.021-4.681,2.085-9.331-0.069-14.109c-0.631-1.398-1.303-3.18-0.876-4.754
		c6.783-5.236,12.16-12.09,19.269-16.954c4.546-3.111,9.174-6.085,13.891-8.929c2.157-1.3,4.074-2.726,5.847-4.299
		c4.674-2.632,9.485-5.851,10.06-11.141C805.236,334.526,804.657,329.297,802.601,325.545z M415.298,209.164
		c-2.611-6.024-0.188-11.736,5.26-15.65C417.907,198.206,416.843,203.435,415.298,209.164z M135.263,728.89
		c-7.762,6.341-17.533,8.628-26.267,13.008C117.316,736.684,126.219,732.646,135.263,728.89z M97.554,746.715
		c-4.15,4.573-9.718,7.33-14.559,11.044C86.073,751.82,92.122,749.679,97.554,746.715z M97.396,738.744
		c-1.938-0.62-2.547,1.045-3.916,0.952c10.938-18.532,36.787-28.872,55.565-37.954c4.044-1.172,8.461-0.649,12.22-2.967
		c8.399-3.796,17.501-5.049,24.043-12.401c-4.368,9.279-17.419,10.894-25.561,15.863c-12.985,7.936-29.008,8.656-41.351,17.51
		c-8.338,7.317-18.874,13.437-23.365,24.01c-3.732,5.586-11.054,6.814-16.303,10.818C84.78,749.306,90.248,743.34,97.396,738.744z
		 M76.856,799.282c3.032-4.394,6.821-5.858,11.588-4.372C84.67,797.447,80.126,796.605,76.856,799.282z M92.48,766.365
		c-2.654,2.346-5.716,3.353-9.642,3.459c3.308-4.236,21.4-16.283,30.502-20.205C106.055,754.795,99.081,760.338,92.48,766.365z
		 M143.778,744.622c-1.732,0.417-3.192,2.219-4.631,3.549c-3.423,3.163-8.137,4.064-11.778,6.871
		c6.327-8.947,15.779-13.112,25.577-16.756C149.879,740.353,147.805,743.653,143.778,744.622z M134.729,845.823
		c7.668-4.279,13.841-11.1,22.864-13.076C150.724,838.386,144.283,844.75,134.729,845.823z M152.121,839.517
		c2.681-2.272,5.335-4.577,8.056-6.801c1.181-0.965,2.048-0.259,2.93,1.046C159.609,836.03,156.178,838.287,152.121,839.517z
		 M154.171,850.906c3.129-0.588,5.225-2.362,8.197-1.514C160.149,852.167,157.567,851.682,154.171,850.906z M166.194,842.196
		c1.628-0.723,2.536-1.127,3.443-1.53c0.118,0.213,0.235,0.426,0.353,0.639c-3.277,2.259-6.696,4.282-10.536,5.635
		c5.954-5.76,12.053-11.327,19.188-15.745C174.967,835.91,170.847,838.216,166.194,842.196z M176.763,845.159
		c5.396-3.814,11.37-6.995,15.815-11.981c-1.164,0.682-2.329,1.364-3.493,2.046c2.857-4.429,6.676-7.761,11.093-10.69
		c1.813,3.07-5.196,4.244-5.747,7.464c2.863-1.63,5.183-4.137,8.398-5.225C196.027,835.536,186.999,841.183,176.763,845.159z
		 M197.847,713.502c2.673-3.45,6.758-4.775,10.25-6.99C204.948,709.244,201.53,711.573,197.847,713.502z M233.734,687.112
		c-12.745,7.506-25.218,15.373-39.633,19.309c-0.104-0.206-0.209-0.411-0.313-0.617c14.228-6.32,27.771-13.933,41.511-21.451
		C235.45,685.815,234.774,686.52,233.734,687.112z M197.531,701.986c1.584-2.187,4.36-2.974,5.613-5.628
		c-9.303,4.801-19.554,8.693-26.391,17.004c-3.378,2.929-7.842,4.325-11.102,7.773c-2.809,3.514-7.404,4.64-11.759,6.374
		c-0.261-1.556,0.569-3.242-2.293-3.868c16.059-5.765,29.198-14.737,41.929-24.547c-1.251-0.662-2.242,1.156-4.176,0.156
		c12.424-5.53,24.382-10.919,36.07-16.898c-3.785,2.153-7.57,4.306-11.356,6.459c0.106,0.209,0.211,0.418,0.317,0.627
		c7.594-3.13,15.212-6.204,22.581-9.932C223.748,686.876,209.908,693.125,197.531,701.986z M294.485,658.739
		c-0.481,0.733-1.564-0.242-2.339,0.729c-0.819,1.027-2.19,0.979-3.509-0.027c-1.923-1.465-3.914-1.466-5.779,0.434
		c-2.412,2.457-5.877,2.286-8.879,3.095c-8.336,2.244-17.018,3.04-25.237,5.854c-2.692,1.396-4.51-2.783-5.597,1.316
		c-8.681,5.011-17.866,11.159-28.325,12.609c10.318-3.775,19.312-8.934,27.987-15.539c5.605-4.045,12.211-5.817,18.709-7.614
		c10.958-2.944,22.132-5.742,33.607-5.285C294.904,655.823,294.706,657.202,294.485,658.739z M312.675,646.614
		c2.871-3.725,4.653-4.429,8.004-2.888C317.886,644.379,315.066,644.896,312.675,646.614z M321.879,322.511
		c-2.142,3.069-3.843,5.505-5.973,8.557C315.569,326.372,317.872,324.311,321.879,322.511z M321.027,334.095
		c-1.157-1.205-2.079-1.571-3.27-1.711c0.533-1.314,1.372-2.181,2.743-3.116C320.675,330.869,320.818,332.178,321.027,334.095z
		 M328.973,399.453c-2.477-3.481-7.428-6.472-6.997-11.542c0.155-1.188-0.555-2.219-1.77-2.954
		c-1.839-1.318-4.594-6.204-1.033-7.179c1.094,6.089,5.205,10.715,7.556,16.203c0.924,2.156,2.723,4.037,5.18,4.916
		c0.421,0.151,1.124,0.46,1.125,0.697c-0.136,3.886,4.442,4.618,5.079,7.751C333.983,405.975,330.99,403.472,328.973,399.453z
		 M347.887,417.919c-1.025,0.835-1.885,1.536-2.87,2.337c-2.869-2.679-5.957-5.458-8.028-9.34
		C340.492,413.167,343.994,415.418,347.887,417.919z M315.27,371.462c-0.165-2.248-2.112-4.632,0.526-7.49
		c0.798,3.233,1.414,5.732,2.028,8.221C316.484,372.926,315.364,372.744,315.27,371.462z M316.029,385.71
		c-1.452-0.737-2.051-1.507-4.488-5.87C315.544,381.349,316.311,382.414,316.029,385.71z M314.627,360.065
		c-3.28-2.914-1.286-19.884,2.608-23.613C313.997,343.914,314.051,351.763,314.627,360.065z M312.568,328.111
		c-0.014-0.528,0.752-0.747,1.848-0.57c-1.766,3.358-0.54,7.327-2.821,10.554C310.229,334.552,312.658,331.485,312.568,328.111z
		 M309.365,367.964c0.199-0.835,0.44-1.724,1.519-1.753c2.115,0.278,1.718,4.393,1.789,6.338c0.737,2.01-0.097,3.77-2.092,5.177
		c-3.314,1.831,6.563,9.318,4.128,11.204c-1.415,1.375-5.829-9.406-7.118-10.849C306.949,374.747,308.952,371.328,309.365,367.964z
		 M292.922,401.287c2.515-6.702,5.53-13.212,7.773-20.05c-2.66,9.019-3.761,18.408-7.059,27.776
		C292.71,406.082,292.045,403.623,292.922,401.287z M294.053,418.122c3.744,4.207,1.582,10.334,5.706,10.183
		c3.055,7.141,8.601,12.092,13.499,17.911C303.626,440.962,291.799,423.548,294.053,418.122z M326.394,451.006
		c-9.765,0.289-28.351-23.599-27.7-32.722c0.62-0.294,0.809,0.055,0.95,0.402c1.211,4.657,18.024,30.126,22.735,26.563
		c-5.614-4.529-9.834-9.906-14.183-15.213c-4.422-5.396-5.575-12.627-10.227-17.932c-1.436,1.086-0.689,2.309-1.689,3.116
		c-1.39-1.78-0.993-3.754-0.555-5.555c3.86-14.048,6.312-28.566,11.028-42.318c0.698,12.253-11.769,34.596-6.553,44.038
		c3.52,5.259,4.267,12.582,10.164,16.078c-4.053-6.884-7.297-14.073-9.671-21.721c7.547,15.762,18.177,29.28,29.497,42.43
		c-2.812-2.676-5.624-5.351-8.436-8.027c-0.278,0.197-0.556,0.394-0.834,0.592C323.188,443.882,325.764,446.875,326.394,451.006z
		 M340.336,433.253c-8.978-8.842-13.947-21.624-23.123-29.787c7.732,11.559,15.134,23.349,25.198,33.927
		c-2.924-0.297-2.917-0.302-9.329-8.621c-5.437-6.524-10.068-13.522-15.156-20.324c1.874,6.055,6.269,10.84,10.116,15.73
		c4.166,4.794,6.907,10.806,11.959,14.8c-2.855,4.349-8.226-8.339-11.684-8.961c1.925,4.112,4.618,7.031,7.346,9.901
		c1.717,1.807,1.779,1.748-0.041,3.939c-4.839-4.763-7.76-11.015-12.573-15.785c2.568,4.874,5.613,9.433,9.145,13.935
		c-4.057,2.194-17.515-21.822-20.719-25.692c-0.516,1.486,0.325,2.301,0.822,3.096c2.165,2.974,17.493,29.36,20.485,23.498
		c2.528,2.369,2.197,5.197-1.092,7.309c1.335-2.619-0.416-3.772-1.725-5.127c-11.593-12.01-21.03-25.509-28.044-40.674
		c-0.4-0.864-1.232-1.725-0.38-3.073c1.983,2.671,3.189,5.749,5.686,7.921c-1.468-4.261-5.065-7.691-5.111-12.479
		c6.114,8.938,10.84,18.724,17.672,27.292c0.957-1.063,0.203-1.5-0.126-1.946c-6.17-8.347-10.938-17.547-16.123-26.492
		c-0.922-1.591-0.853-1.632,0.133-4.01c4.626,8.398,9.02,16.644,14.977,23.929c-5.138-8.592-10.118-17.26-14.536-26.224
		c0.229-0.14,0.458-0.279,0.688-0.419c2.264,3.538,4.529,7.076,6.793,10.615c-1.452-5.002-4.464-9.181-6.422-13.887
		c2.673,2.506,3.725,6.134,6.885,9.056c-1.366-5.408-6.849-8.669-5.221-15.205c2.109,3.592,3.786,6.602,5.624,9.51
		c0.819,1.296-0.806,1.763-0.666,2.751c7.241,3.526,7.789-1.317,13.104,6.811c-3.762,1.965-3.788,4-1.531,7.464
		c6.835,10.07,13.869,20.438,24.023,27.423C343.996,436.314,343.057,436.153,340.336,433.253z M350.118,624.826
		c-2.389-6.602-6.525,4.357-9.157,5.988c0.388-3.316,3.82-4.446,4.142-7.843c-3.349,3.156-6.698,6.313-10.046,9.469
		c-0.132-0.125-0.263-0.25-0.395-0.374c2.146-3.065,8.678-7.916,9.176-11.14c3.762-1.058,7.543-0.612,11.729-0.436
		C354.183,623.089,351.415,622.892,350.118,624.826z M349.732,430.755c-5.78-4.907-11.317-10.041-15.541-16.427
		c2.811,8.039,9.773,12.639,15.149,18.57c-10.602-6.537-17.349-16.659-24.636-26.539c1.138-1.255,2.873-1.479,4.18-3.549
		c0.727,3.159,3.459,4.497,3.31,7.364c-0.019,0.365,0.375,0.952,0.724,1.106c5.592,2.474,8.568,7.913,13.084,11.633
		c3.228,2.659,6.224,5.647,9.726,8.077C352.453,433.026,352.397,433.017,349.732,430.755z M348.111,423.114
		c2.464-0.469,3.878-2.001,4.609-4.213c9.206,16.742,10.4,4.319,13.445,10.375C359.763,431.759,354.392,429.968,348.111,423.114z
		 M398.207,431.762c-0.448,0.825-1.123,0.855-1.933,0.594c-0.632-0.203-1.235-1.055-1.981-0.184
		c-0.195,1.464,1.428,0.847,1.874,1.615c-3.222-0.013-3.403-0.31-2.782-4.583C394.685,428.651,399.154,429.928,398.207,431.762z
		 M382.852,409.721c-1.223,1.549-0.012,3.02-1.292,4.636c-7.917-18.772-16.087-37.029-21.421-56.334
		c-0.688,1.849-0.756,2.723,0.303,5.932c5.985,17.507,12.735,34.78,20.634,51.509c0.229,0.497,0.533,1.029-0.118,1.867
		c-11.776-19.158-16.861-40.82-24.504-62.097c-0.646,1.65-0.29,2.685,0.032,3.651c4.067,12.213,7.844,24.536,12.376,36.575
		c2.705,7.186,6.226,14.146,10.119,20.774c2.216,3.774,1.424,6.841-0.053,10.414c-11.85-26.168-23.633-52.346-30.558-80.38
		c5.605,28.033,17.635,53.806,28.154,80.118c-16.555-29.33-29.378-60.071-35.034-93.53c4.12,31.93,16.184,61.102,30.803,89.446
		c-16.12-19.174-22.623-43.069-29.78-66.671c0.168,13.996,18.251,61.194,36.301,75.126c-4.559-0.209-13.067,0.575-13.252-5.166
		c0.273-2.724-2.737-1.963-3.962-5.407c-12.722-21.696-21.279-45.622-27.79-69.611c2.759,18.324,10.059,35.173,16.987,52.157
		c-11.725-16.816-17.47-36.046-22.073-56.067c-1.206,3.898,2.865,18.547,10.001,36.787c-0.003-0.003-0.013-0.012-0.024-0.022
		l-0.025-0.024c0.009,0.031,0.018,0.061,0.027,0.092c0.003-0.004,0.005-0.009,0.007-0.013c6.156,14.803,17.142,26.789,23.652,41.341
		c-2.826-2.71-5.744-5.185-9.656-5.989c-0.194-0.706-0.377-1.4-0.62-2.322c2.344,0.421,3.899,2.309,6.153,2.529
		c-1.47-2.304-3.887-3.211-6.356-4.511c-0.947,3.211-2.525,2.205-4.365,0.886c-2.585-2.765-9.171-3.864-9.326-7.964
		c2.56,0.935,3.158,4.208,6.629,1.867c-11.516-5.836-13.73-17.655-19.185-27.36c0.831,4.304,2.808,8.172,4.199,12.274
		c-3.192-4.584-6.523-9.006-7.907-14.637c-3.348-12.038-8.729-24.55-4.389-37.087c0.456,5.612,0.155,11.294,1.675,16.794
		c-0.554-7.595-0.319-15.12,1.331-22.604c0.814,1.767,0.759,3.655,1.695,5.798c0.045-4.314,0.002-7.64-0.192-11.668
		c0.021-1.625,2.144-1.795,2.417-3.288c0.232-1.267-1.751-2.063-0.494-4.085c2,4.377,1.404,8.88,3.196,12.849
		c-1.366-17.589-4.698-13.524,10.795-23.633c5.154-2.64,10.852-1.464,13.678,4.818c6.414,12.921,10.019,27.219,14.442,40.514
		c1.12-1.715,0.15-3.839,1.293-6.362c8.464,11.65,15.782,23.547,21.024,36.42c1.667,5.145,4.103,9.9,7.303,14.246
		c3.752,5.096,3.002,10.955,3.385,17.087C392.883,416.875,387.296,414.339,382.852,409.721z M362.681,324.102
		c8.664,11.106,8.69,25.611,14.89,38.28C365.426,347.781,369.521,339.737,362.681,324.102z M401.304,430.031
		c4.536,0.73,8.854,2.078,13.385,2.414C411.819,432.569,399.596,435.563,401.304,430.031z M418.074,330.082
		c2.159,7.026,1.75,14.349,3.4,21.3c0.987,4.157,0.09,7.082-1.639,10.566c-4.509,9.084-8.277,18.502-11.338,28.186
		c0.33,10.482-3.798,20.368-0.757,30.827c-2.373-0.816-5.37,1.173-6.593-1.706c-0.572-1.345-2.201-4.246,1.188-5.14
		c-2.44-17.195-14.745-30.065-20.868-45.843c-6.743-16.279-8.495-34.649-19.711-48.927c3.379,0.214,5.2-1.87,7.356-3.429
		c7.88-5.698,16.394-10.269,25.298-14.166c2.547-1.115,5.144-0.792,7.737-1.007c6.644-0.386,13.315-2.006,19.778,0.661
		C416.659,308.585,414.98,321.946,418.074,330.082z M421.556,299.096c-3.567-0.686-7.167-0.972-10.782-1.056
		c1.291-0.14,2.578-0.318,3.87-0.448c3.05-0.307,5.972-0.125,8.925,0.715c0.375,0.107,0.746,0.222,1.116,0.342
		C423.712,298.985,422.689,299.161,421.556,299.096z M550.808,449.196c-5.694-3.85-10.115-8.782-15.443-12.584
		c-1.58-1.057-0.055-3.474,1.451-3.835C543.798,431.415,552.994,441.882,550.808,449.196z M537.6,426.088
		c3.348,2.659,7.223,1.623,10.776,2.826c-0.902,2.121-1.734,4.078-2.688,6.319c-2.906-2.002-6.242-2.788-9.413-3.972
		c-1.091-0.165-0.953,1.382-2.113,1.56C533.964,429.888,537.036,428.967,537.6,426.088z M522.01,374.56
		c3.699-6.564,6.283-14.246,4.076-21.802c-0.277-0.958,0.237-2.145,0.404-3.357c7.237,18.304-12.718,47.913-30.404,53.293
		C506.164,394.638,517.518,387.75,522.01,374.56z M515.952,273.032c4.421-2.673,7.688-6.627,11.479-10.328
		C527.348,266.493,520.259,272.885,515.952,273.032z M489.413,187.966c0.238,2.963,1.768,5.117,2.462,7.925
		c-2.484-0.795-4.65-1.488-7.023-2.247C486.07,191.583,487.52,189.886,489.413,187.966z M471.806,184.474
		c-1.721,3.43-2.151,7.627-6.299,9.597C467.414,190.753,468.462,186.9,471.806,184.474z M469.487,280.318
		c-12.367-5.401-29.373-12.157-29.688-28.016c-0.085-1.096-0.092-1.981-1.683-2.36c-2.55-1.107-4.084-8.951-2.807-11.955
		c2.061,3.437,2.415,6.972,3.852,10.083c0.038-8.592-7.09-15.109-6.921-23.888c9.625,2.436,0.063,5.512,7.078,11.661
		c-1.517-5.425-1.152-9.856,4.963-12c4.703-1.649,5.106,3.359,8.308,5.056c-3.246-5.315-0.872-2.367-0.254-4.278
		c-5.035-3.78-7.304-5.169-14.168-0.537c-1.079-2.456-0.815-1.965,4.721-5.065c-2.007-0.217-3.278,1.04-4.776,1.498
		c-0.552-3.918,0.589-6.607,3.584-8.255c1.598,3.668,3.478,7.11,9.153,5.412c-3.538-1.138-4.8-3.318-3.977-6.594
		c0.683-0.749,1.528,0.566,2.349-0.133c-1.817-1.742-2.951-2.204-1.862-4.83c3.01-7.596,6.482-14.784,12.104-20.881
		c-1.344,8.006-1.039,15.121,2.782,22.112c3.629-17.287-0.529-6.135,16.908-17.467c-2.936,5.579-10.438,4.435-12.493,10.406
		c2.32-0.934,3.628-3.419,6.373-3.347c-1.366,2.003-3.522,3.076-5.142,4.732c1.283,1.036,2.139,0.299,2.869-0.098
		c3.859-2.1,8.389-2.641,12.009-5.353c4.407-1.461,10.31,1.935,13.755,4.899c3.09,2.929,5.859,6.422,10.292,7.487
		c-5.368,13.668-11.179,26.623-19.551,38.505c3.62-1.078,5.788-4.283,9.349-5.231c-1.694,3.67-4.754,6.446-6.346,10.296
		c4.133-0.367,12.037-2.799,15.137-0.319c0.752,0.653,1.534,0.413,2.38,0.177c9.901-2.516,8.663-10.684,12.673-11.454
		c2.033-0.261,3.819-1.406,5.508-3.054c-2.022-0.347-3.15,1.763-5.201,1.137c0.458-0.363,0.704-0.636,1.011-0.79
		c8.067-2.987-1.879-6.428,4.421-11.101c1.466,0.259,1.766,1.831,3.25,2.277c0.348-1.621-3.147-3.211-0.381-4.745
		c1.613,0.378,0.846,2.121,1.888,2.724c0.299-3.697-0.571-4.084-5.058-2.013c0.896-2.979,2.979-4.258,5.715-5.322
		c2.987,7.489,0.335,23.581-9.678,23.115c-1.922,0.032-2.514,0.967-2.982,2.628c-3.768,13.367-10.388,16.815-21.092,15.118
		c-0.511-0.081-1.066-0.34-1.779,0.34c3.27,1.521,6.685,1.054,10.431,1.43c-2.352,2.039-5.032,1.553-7.325,2.24
		c-2.791,0.836-4.593-1.709-7.021-2.347c1.123,3.917,9.965,7.022,18.283,6.419c-1.302,3.551-4.95,5.66-5.675,9.329
		c0.826,1.031,1.983,0.305,2.654,0.886c-0.958,7.384-1.891,14.729-2.878,22.068c-0.953,2.856,1.51,10.939-3.915,8.563
		c-4.056-1.975-7.958-4.275-12.065-6.129c-2.141-0.966-4.719-1.37-5.884-3.534c-1.621-3.012-4.73-4.406-7.237-6.909
		c2.181-0.759,3.17,0.927,4.776,1.102c0.6-0.392,1.303-1.206,2.098-1.309c9.236-1.649,7.789-12.695,13.36-18.436
		C488.787,280.369,478.226,284.541,469.487,280.318z M490.859,405.108c-7.051,2.863-13.213,7.238-19.479,11.529
		C476.241,409.996,483.163,406.873,490.859,405.108z M465.437,423.6c0.948-0.876,2.341-1.664,3.876-0.007
		c-7.556,4.677-14.983,9.113-24.662,9.264C451.697,428.785,459.102,428.205,465.437,423.6z M453.312,433.265
		c6.815-1.509,12.312-5.99,18.84-8.145C466.551,429.365,460.74,433.137,453.312,433.265z M513.7,532.859
		c-2.131-3.009-3.755-6.306-6.481-9.39c2.447-1.71,4.717-3.296,7.473-5.222c0.317,3.684-1.081,6.919,0.48,9.876
		c-1.536,0.714-1.681-0.91-2.661-1.01c-0.1,1.179,0.505,1.973,1.228,2.863c1.253-0.099,2.573-1.203,4.081,0.08
		C516.757,531.373,515.462,532.263,513.7,532.859z M515.936,536.014c3.028-2.369,5.712-5.321,9.827-5.841
		C522.245,531.707,519.418,534.417,515.936,536.014z M554.882,513.575c-1.072,2.632-3.779,2.29-6.141,2.078
		c0.845,2.044-0.358,3.976-0.623,5.978c-0.141,1.063-1.369,0.705-2.169,0.769c-1.67,0.133-2.953,0.433-3.528,2.485
		c-0.595,2.124-4.827,2.785-6.451,0.841c-3.657-4.38-9.095-5.465-13.716-8.046c-1.052-0.588-2.314-1.004-2.982,0.257
		c-1.488,2.669,10.316,5.751,12.636,8.551c-2.805,1.406-5.321,1.63-7.805,1.154c-2.204-0.423-4.912,0.832-6.505-0.785
		c-2.014-3.328-1.713-12.462-0.165-16.361c1.002,0.214,0.845,1.061,0.956,1.751c0.126,0.786-0.122,1.931,1.164,1.81
		c1.067-0.101,1.184-1.152,1.161-1.977c-0.059-2.097,0.723-4.087,0.782-6.129c0.108-7.704,5.135-7.166,5.909-10.493
		c-0.707-1.003-2.009,0.695-2.36-0.632c1.706-9.635-5.761-16.034-0.298-25.448c3.887,2.545,19.066,6.477,18.683,11.329
		c0.137,1.95-5.969,3.248-7.582,2.788c1.328,4.721,0.14,6.496-4.647,7.26c-2.51,0.401-2.717,1.354-2.257,3.923
		c0.709,3.96,1.053,8.012,1.198,12.037c0.099,2.737,0.897,4.58,3.478,5.83c2.482,1.203,4.142,3.486,5.867,5.598
		c0.451,0.552,0.644,1.385,1.774,1.425c2.905-6.728-11.757-7.332-9.87-16.171c0.594-4.969-1.508-10.096,4.206-12.524
		c0.613,1.278,0.548,2.507,0.249,3.46c-1.649,6.034,8.304,12.482,11.754,17.558c0.333-8.022-11.432-9.622-10.242-17.917
		c0.819-2.501-1.124-10.03,2.736-9.868c3.115,0.282,2.13,1.897,2.992,3.944c6.174,4.605,0.267,8.755,4.592,9.687
		c8.744,2.07,5.337,8.84,14.112,3.907C560.89,506.483,556.372,508.874,554.882,513.575z M552.397,496.354
		c1.182-2.484,4.848-2.845,3.897-6.267c1.234,1.062,1.7,2.182,1.777,3.483C556.074,493.907,554.817,495.84,552.397,496.354z
		 M558.103,493.651c0.385,0.691,1.03,1.278,0.928,2.387c-1.446,0.238-2.169,2.686-4.47,1.365
		C555.451,495.683,557.829,495.603,558.103,493.651z M555.99,489.171c-1.484,1.896-3.247,3.58-4.949,5.297
		c-0.96,0.732-2.672-0.763-2.109-1.884c1.246-3.37,5.05-3.917,6.597-7.39C555.712,486.751,556.885,488.027,555.99,489.171z
		 M548.438,489.337c-1.447,1.228-4.014-1.379-4.034-4.01c-0.02-2.736,2.326-3.885,3.847-5.56c0.4-0.441,5.676,1.765,6.127,2.392
		C554.944,485.407,550.413,487.361,548.438,489.337z M607.835,492.195c-1.111,1.231-2.117,0.312-3.273,0.217
		c-8.415-0.451-15.256-5.484-23.932-4.337c4.244,2.722,8.896,0.85,12.948,3.859c2.593,1.405,7.455,1.653,5.425,5.826
		c-0.341,0.75-0.875,0.742-1.572,0.831c-7.908,1.182-14.202-3.495-21.184-5.627c-1.518,2.654,5.024,3.852,6.702,4.73
		c2.884,0.872,4.833,3.049,7.528,4.586c-2.166,1.914-4.889,2.384-6.445,4.981c-1.889-2.398-12.631-12.315-14.414-8.442
		c4.286,2.002,8.606,4.134,11.507,8.361c-3.143,1.035-5.64-1.474-8.613-1.432c-3.899,0.048-5.68-2.18-7.432-5.294
		c-3.083-5.481-6.383-10.776-8.301-16.871c-0.773-2.456-3.416-3.972-5.804-5.067c-17.037-8.811-38.133-13.59-50.791-28.71
		c-5.53-13.103-18.035-18.627-27.63-27.889c6.906-5.586,14.421-9.822,22.724-12.667c-1.656-3.301-20.357,8.762-22.642,11.082
		c-0.862,0.698-1.579,1.863-2.665,0.097c30.239-25.502,21.433-11.801,44.911,6.537c12.195,8.409,25.621,15.069,36.99,24.714
		c5.034,3.786,10.146,7.457,14.912,11.585c2.783,1.529,7.307-1.142,10.186-1.937c7.684-4.278,14.707,1.623,20.404-1.608
		c1.989-0.725,4.686-4.359,6.669-3.603c2.768,3.593-3.624,9.501-7.083,10.44c-4.01,1.188-8.158,1.693-11.928,3.582
		c0.963,2.709,1.868,5.37,3.278,7.561c0.087,0.392,0.328,0.757,0.666,0.955c0.001,0.001,0.002,0.001,0.003,0.001
		c1.423,1.841,3.331,3.244,6.145,3.887c3.432,0.785,6.888,1.49,10.422-0.434c-1.665-1.501-3.422,0.206-5.105-0.549
		c1.485-2.164,5.672-6.606,7.423-2.728c1.866,2.957-0.68,6.601,0.915,9.65C609.563,490.106,608.841,491.08,607.835,492.195z
		 M592.448,472.51c-0.232,0.165-0.464,0.331-0.69,0.507c-1.057,0.825-1.904,1.796-2.685,2.855c-0.288-0.702-0.541-1.544-0.758-2.544
		C589.759,473.276,591.114,472.941,592.448,472.51z M696.059,398.326c-1.831,3.6-4.991,4.106-10.562,2.042
		C688.592,396.181,692.525,400.157,696.059,398.326z M678.594,377.544c0.848-13.97,12.272-8.298,9.889,3.245
		C686.974,389.167,677.295,384.8,678.594,377.544z M660.856,418.813c0.012,0.012,0.019,0.024,0.03,0.035
		c-0.044,0.021-0.086,0.044-0.13,0.065C660.789,418.881,660.821,418.844,660.856,418.813z M647.037,456.86
		c-2.638-0.76-4.949-0.821-6.936-0.097c0.298-0.566,0.588-1.136,0.943-1.672c0.886-1.336,2.132-2.388,3.314-3.455
		c0.941-0.849,1.819-1.7,2.625-2.603c5.204-3.988,10.226-8.225,14.988-12.826c0.371,0.172,0.775,0.274,1.183,0.291
		c-0.301,8.162-1.123,16.077-2.934,23.956C655.508,459.742,652.438,454.777,647.037,456.86z M661.131,460.402
		c2.638-8.08,3.13-15.899,3.541-23.728C665.704,447.379,664.273,457.515,661.131,460.402z M702.648,432.14
		c-6.097,2.88-11.537,6.681-15.79,11.997c-0.952,1.19-2.191,1.818-3.594,2c-7.253,1.35-12.119,7.535-18.073,11.408
		c-0.21-0.13-0.42-0.261-0.63-0.391c2.99-7.445,0.412-16.594,3.345-23.763c0.981-0.515,2.019-0.997,2.722-1.7
		c1.269-1.269,2.121-2.869,3.177-4.308c5.555-4.175,11.505-7.775,17.354-11.514c1.276-2.185,12.376-4.679,12.017-1.178
		C701.945,419.548,707.549,429.423,702.648,432.14z M706.666,378.622c-12.683-0.047-9.03-16.618,0.085-17.977
		c3.619-0.118,8.573,6.444,8.48,11.234C715.17,375.055,710.668,378.599,706.666,378.622z M728.064,367.502
		c2.376-0.988,4.26-1.772,6.354-2.643c0.983,5.402,8.456,5.22,8.903,11.26C730.652,364.989,736.673,380.786,728.064,367.502z"/>
</g>
</svg>
