<?xml version="1.0" encoding="utf-8"?>
<svg version="1.1" xmlns="http://www.w3.org/2000/svg" viewBox="0 0 32 32" width="32" height="32">
  <!-- Jiji cat favicon - 32x32 version -->
  <!-- Cat head -->
  <ellipse fill="#010101" cx="16" cy="18" rx="12" ry="10"/>
  
  <!-- Cat ears -->
  <polygon fill="#010101" points="8,12 12,6 16,12"/>
  <polygon fill="#010101" points="16,12 20,6 24,12"/>
  
  <!-- Inner ears -->
  <polygon fill="#674B6A" points="9.5,11 11.5,8 14.5,11"/>
  <polygon fill="#674B6A" points="17.5,11 19.5,8 22.5,11"/>
  
  <!-- Eyes -->
  <ellipse fill="#E4C05E" cx="12" cy="16" rx="2.5" ry="3"/>
  <ellipse fill="#E4C05E" cx="20" cy="16" rx="2.5" ry="3"/>
  
  <!-- Eye pupils -->
  <ellipse fill="#010101" cx="12" cy="16.5" rx="0.8" ry="2"/>
  <ellipse fill="#010101" cx="20" cy="16.5" rx="0.8" ry="2"/>
  
  <!-- Nose -->
  <polygon fill="#EC7D7A" points="16,20 17.5,21.5 16,22 14.5,21.5"/>
  
  <!-- Mouth -->
  <path d="M 16 22 Q 14 23 12 22" fill="none" stroke="#010101" stroke-width="1"/>
  <path d="M 16 22 Q 18 23 20 22" fill="none" stroke="#010101" stroke-width="1"/>
</svg>
