<?xml version="1.0" encoding="utf-8"?>
<!-- Generator: Adobe Illustrator 26.3.1, SVG Export Plug-In . SVG Version: 6.00 Build 0)  -->
<svg version="1.1" id="Layer_1" xmlns="http://www.w3.org/2000/svg" xmlns:xlink="http://www.w3.org/1999/xlink" x="0px" y="0px"
	 viewBox="0 0 864 864" style="enable-background:new 0 0 864 864;" xml:space="preserve">
<style type="text/css">
	.st0{fill:#010101;stroke:#000000;stroke-width:0.75;stroke-miterlimit:10;}
	.st1{fill:#010101;}
	.st2{fill:#FFFFFF;}
	.st3{fill:#1B1C1A;}
	.st4{fill:#846AA9;}
	.st5{fill:#EC7D7A;}
	.st6{fill:#BC2026;}
	.st7{fill:#EE2A7B;}
	.st8{fill:#444B51;}
	.st9{fill:#C35B4A;}
	.st10{fill:#E5D5DD;}
	.st11{fill:#EFA388;}
	.st12{fill:#AAB1C9;}
	.st13{fill:#FCBD74;}
	.st14{fill:#DF1F26;}
	.st15{fill:#673929;}
	.st16{fill:#E77A68;}
	.st17{fill:#6DB0C0;}
	.st18{fill:#F8D0BB;}
	.st19{fill:#674B6A;}
	.st20{fill:#EB8923;}
	.st21{fill:#E4C05E;}
	.st22{fill:#BF5A2B;}
	.st23{fill:#393D3C;}
	.st24{fill:#484162;}
	.st25{fill:#6A5B8E;}
	.st26{fill:#4E5150;}
	.st27{fill:#7B7F96;}
	.st28{fill:#E0B653;}
	.st29{fill:#ABADAD;}
</style>
<g>
	<path d="M130.784,308.338c0.702-0.933,1.536-0.832,2.31-0.866c9.663-1.15,19.181-3.535,28.998-3.351
		c13.676-1.476,27.38,0.13,40.981-2.198c6.832-1.256-1.214-9.267-2.268-12.609c-1.924-12.985-8.635-12.405-18.272-18.179
		c-17.943-10.553-38.294-15.074-58.549-18.782c0.772-2.362,13.84-0.963,16.492-0.49c13.219,1.452,25.824,6.087,38.638,9.21
		c3.421,2.148,7.535,2.297,11.168,3.974c7.599,3.618,4.784-16.25,6.848-20.482c1.751-7.877,5.123-15.542,9.144-22.508
		c2.409-5.477,11.646-13.05,11.338-17.349c-0.685-8.955-0.364-17.916-0.916-26.816c-2.827-34.103,1.547-68.594,14.934-100.077
		c5.218-11.868,11.353-23.083,18.272-34c6.443-10.522,12.938-21.136,21.927-29.702C282.3,3.05,294.37,18.939,296.532,29.253
		c4.24,9.004,4.433,19.403,5.769,29.142c1.673,10.42,4.876,20.718,5.698,31.373c1.399,9.363,3.852,18.671,4.01,28.203
		c1.545,11.003,2.278,22.088,3.352,33.147c0.28,4.039,7.357,1.9,10.204,2.527c2.947-0.377,5.93,0.932,8.787,0.099
		c0.664-0.244,1.205-0.62,1.491-1.298c3.009-7.067,6.003-14.154,8.721-21.335c4.539-10.108,8.427-20.49,11.974-30.994
		c8.408-20.603,16.911-41.242,27.097-61.099c4.241-6.979,6.386-16.178,13.73-20.595c4.347-2.171,9.156,0.89,12.749,3.455
		c7.73,5.168,11.928,13.437,15.823,21.607c7.95,24.28,11.517,49.921,13.514,75.305c0.201,31.963,9.587,64.134,0.666,95.641
		c-2.007,4.46,2.874,8.594,4.259,12.699c3.344,9.757,6.403,20.084,5.438,30.517c-0.409,6.18-0.651,12.504-2.229,18.524
		c-0.351,1.825-1.73,5.503,1.27,5.587c18.965-6.604,36.952-17.613,57.002-21.508c5.671-1.288,22.581-4.615,25.236,1.042
		c-0.123,0.704-0.737,0.764-1.286,0.871c-6.014-0.333-11.698,0.913-17.283,2.978c-16.859,3.981-32.834,10.906-48.534,18.111
		c-9.082,5.908-21.512,9.315-26.362,19.796c-0.638,2.494-4.969,7.287-0.515,8.166c6.555,0.494,13.185,0.489,19.724,0.84
		c16.454,1.952,33.305,1.544,49.895,2.876c9.581,0.158,18.99,0.406,28.408,2.322c0.63,0.099,1.38,0.129,1.538,1.004
		c-2.062,1.394-4.898,0.728-7.286,0.952c-9.531-0.368-19.062-0.532-28.599-0.353c-6.818,0.049-13.568,1.318-20.39,1.156
		c-16.14-0.754-32.163-1.48-48.235,0.773c-7.092,0.196-11.494,6.401-15.85,11.222c-9.138,12.196-24.757,14.939-38.656,18.538
		c-6.855,2.267-20.08-0.923-9.755,9.18c3.464,4.572,8.613,8.493,10.992,13.66c0.03,2.97,3.17,3.905,4.086,6.449
		c6.231,11.725,8.958,24.852,13.116,37.389c9.733,21.133,12.761,44.424,17.646,67.029c2.922,12.927,5.126,26.01,7.452,39.053
		c2.109,14.901,1.994,30.04,3.799,45.013c1.09,10.714,1.545,21.533,1.122,32.294c-0.774,4.969-1.356,9.812,0.116,14.777
		c11.848,21.432,18.589,45.253,21.914,69.456c1.065,8.1,2.681,16.106,2.587,24.336c-0.153,2.587-0.102,5.541,3.302,5.424
		c25.153-1.694,45.591-19.519,61.502-37.674c7.038-7.308,11.897-16.243,17.077-24.835c7.144-10.873,13.752-22.091,20.436-33.242
		c24.646-39.519,37.243-84.818,58.292-126.078c12.195-21.925,26.127-43.072,44.073-60.783c13.898-13.351,29.529-24.68,46.03-34.647
		c11.316-8.28,26.345-4.356,33.568,7.424c19.064,27.443-21.502,41.116-36.2,57.625c-17.896,16.406-33.057,35.994-44.733,57.303
		c-8.372,16.748-18.228,32.977-24.737,50.55c-3.991,12.04-8.772,23.734-13.247,35.538c-2.696,6.401-6.972,12.158-9.344,18.795
		c-6.834,15.284-16.488,29.145-25.346,43.315c-7.359,10.764-16.599,19.999-24.946,29.983
		c-14.106,15.476-27.769,31.497-44.722,43.974c-10.303,7.731-22.021,13.919-34.109,18.606c-6.386,4.61-16.393,2.569-21.084,9.094
		c-4.587,5.969-5.143,13.78-8.931,20.043c-4.263,6.204-9.767,11.897-16.566,15.244c-1.806,1.089-2.544,2.499-1.997,4.571
		c4.149,20.193-13.38,24.938-29.436,27.883c-9.362,2.52-19.426-0.076-28.572,3.066c-4.799,2.538-8.18,7.228-13.169,9.482
		c-10.864,3.285-23.262,2.417-33.569-2.274c-4.34-0.856-5.917-11.676-11.067-6.702c-8.664,12.085-23.186,13.699-37.047,12.401
		c-9.73-0.608-16.781-8.126-25.727-10.981c-10.261-0.867-43.262,1.291-39.427-15.41c3.072-11.278,15.806-14.573,13.08-17.732
		c-4.243-6.17-12.452-7.105-18.449-10.951c-10.965-7.962-16.852-21.286-20.029-34.114c-3.333-15.587,1.297-31.414,4.952-46.538
		c4.288-21.195,11.8-41.636,22.343-60.512c1.585-5.811-1.29-11.943-1.077-17.884c-0.027-10.318-2.474-20.517-0.727-30.802
		c-0.095-18.483,0.485-37.29,2.67-55.625c3.013-19.13,7.204-38.367,10.923-57.354c4.526-19.557,13.458-37.703,18.245-57.125
		c7.669-21.227,16.305-42.224,24.586-63.248c2.045-5.047,4.587-9.864,7.539-14.381c2.591-2.587,1.476-5.777-2.048-6.531
		c-16.107-7.712-31.594-17.045-45.234-28.585c-17.281-16.269-8.515-14.154-34.119-14.301c-14.843-0.367-29.7-1.063-44.579-1.106
		C143.769,309.399,134.063,311.377,130.784,308.338z M269.245,156.587c2.947-6.758-2.678-10.753,7.949-12.792
		c6.044-0.154,5.408-25.754,6.208-31.099c1.467-29.4-4.106-58.599-3.814-87.966c-1.643-25.011-42.461,54.006-42.115,59.633
		c-10.918,26.815-15.569,55.778-14.027,84.732c-0.125,4.874,0.435,9.779,0.592,14.609c-0.17,2.711-1.775,14.247,3.045,11.264
		c4.448-4.53,20.857-15.499,19.384-21.607c-0.401-3.016-1.497-7.822,2.961-7.767c10.724,1.469,6.652-0.856,10.18-8.178
		C262.951,156.613,266.31,157.377,269.245,156.587z M399.334,153.877c-3.771,5.881-6.058,9.404,3.201,9.109
		c2.301,0.26,12.978,0.935,10.264,4.751c-2.192,0.645-4.459,1.003-2.689,3.84c5.061,6.39,9.459,13.274,13.82,20.162
		c9.094,15.897,10.215,11.993,11.747-3.848c1.92-18.986-2.592-37.728-3.424-56.617c0.749-13.589-2.503-27.059-3.995-40.494
		c-1.717-14.757-4.469-29.697-8.837-43.918c-1.359-5.476-16.603-31.02-19.234-15.604c-7.402,28.54-10.105,58.061-12.863,87.298
		c-0.09,6.286-3.152,30.792,3.84,32.622C394.123,151.872,397.063,150.898,399.334,153.877z M307.967,252.996
		c-0.655-30.62-14.989-47.861-46.975-39.544c-28.85,9.78-28.979,46.322-11.389,66.937c2.518,4.059,7.611,4.714,10.871,7.951
		c5.708,3.069,12.158,2.978,18.252,1.829C296.629,287.172,308.697,270.874,307.967,252.996z M394.698,291.88
		c28.314,1.115,34.854-30.87,28.114-52.797c-7.286-30.241-50.425-27.069-58.741,0.819
		C354.679,264.042,365.829,292.888,394.698,291.88z M330.987,263.192c0-0.001,0-0.003,0-0.004
		c-4.986-1.107-14.007,3.746-6.151,7.588c3.219,1.285,4.642,5.249,8.409,5.331c3.21,0.147,4.87-3.875,8.157-4.341
		C347.078,267.087,335.099,262.046,330.987,263.192z"/>
	<path d="M296.387,248.41c0.479,6.53-2.863,14.443-9.373,16.437c-8.641,3.973-16.284-6.777-17.066-14.479
		c-2.302-11.922,4.425-30.575,19.365-21.772C294.769,233.578,296.567,241.279,296.387,248.41z"/>
	<path d="M396.589,248.929c0.869,10.033-5.445,23.356-16.786,19.272c-11.432-4.716-11.278-41.898,5.634-38.154
		C395.236,230.44,397.391,241.183,396.589,248.929z"/>
</g>
</svg>
