<?xml version="1.0" encoding="utf-8"?>
<!-- Generator: Adobe Illustrator 26.3.1, SVG Export Plug-In . SVG Version: 6.00 Build 0)  -->
<svg version="1.1" id="Layer_1" xmlns="http://www.w3.org/2000/svg" xmlns:xlink="http://www.w3.org/1999/xlink" x="0px" y="0px"
	 viewBox="0 0 864 864" style="enable-background:new 0 0 864 864;" xml:space="preserve">
<style type="text/css">
	.st0{fill:#010101;stroke:#000000;stroke-width:0.75;stroke-miterlimit:10;}
	.st1{fill:#010101;}
	.st2{fill:#FFFFFF;}
	.st3{fill:#1B1C1A;}
	.st4{fill:#846AA9;}
	.st5{fill:#EC7D7A;}
	.st6{fill:#BC2026;}
	.st7{fill:#EE2A7B;}
	.st8{fill:#444B51;}
	.st9{fill:#C35B4A;}
	.st10{fill:#E5D5DD;}
	.st11{fill:#EFA388;}
	.st12{fill:#AAB1C9;}
	.st13{fill:#FCBD74;}
	.st14{fill:#DF1F26;}
	.st15{fill:#673929;}
	.st16{fill:#E77A68;}
	.st17{fill:#6DB0C0;}
	.st18{fill:#F8D0BB;}
	.st19{fill:#674B6A;}
	.st20{fill:#EB8923;}
	.st21{fill:#E4C05E;}
	.st22{fill:#BF5A2B;}
	.st23{fill:#393D3C;}
	.st24{fill:#484162;}
	.st25{fill:#6A5B8E;}
	.st26{fill:#4E5150;}
	.st27{fill:#7B7F96;}
	.st28{fill:#E0B653;}
	.st29{fill:#ABADAD;}
</style>
<g>
	<path d="M707.022,434.963c7.965-2.599,16.83-3.224,24.473-7.914c12.822-8.571,17.851-7.414,8.725,7.303
		c-0.817,1.295-2.135,2.355-2.261,4.679c7.721-3.217,14.235-7.631,22.158-10.147c15.043-4.418,27.954,3.55,11.834,16.56
		c4.549,0.937,7.719-1.372,12-1.713c10.209-0.135-8.5,12.845-8.917,16.161c5.928,1.149,27.923-14.724,32.128-8.969
		c2.501,5.08-6.454,9.483-7.798,13.999c3.352,1.325,6.517-1.988,10.357-0.376c-2.288,5.693-8.445,6.996-12.277,11.219
		c6.485,5.415,38.781,0.375,27.075,14.963c-2.258,2.488-5.75,3.188-8.01,5.643c0.877,1.861,2.624,1.948,4.036,2.502
		c12.288,4.985,17.326,11.068,4.516,20.156c3.949,3.595,9.131,1.649,13.827,2.181c3.276-0.414,4.413,2.832,2.026,4.888
		c-5.592,6.415-13.724,6.992-20.413,12.075c15.364,18.193,35.267,14.041,28.447,21.19c-6.968,7.497-16.475,11.95-25.467,16.403
		c0.281,3.632,4.764,5.606,1.594,9.491c-2.665,3.087-8.245,4.784-11.943,3.428c-7.021-2.574-14.252-4.224-21.663-5.097
		c-2.031-0.239-4.182-0.473-5.431,1.784c0.97,1.303,2.131,0.851,3.12,1.003c11.113,1.367-4.234,11.367-7.955,13.439
		c3.123,2.298,6.754,0.745,9.695,2.12c-4.352,11.958-21.284,5.894-31.415,6.186c4.294,5.09,19.609,1.957,11.834,10.755
		c-11.102,11.176-31.103,1.904-43.355-1.937c-1.077,6.188,5.095,8.499-5.055,13.967c-7.487,5.758-12.895-17.319-33.091-22.34
		c-8.484-2.631-16.753-5.996-25.007-9.311c-3.104-1.247-4.657-0.584-6.372,2.238c-47.048,79.026-125.365,136.109-215.046,156.428
		C278.056,799.11,96.46,694.252,49.377,530.462c-0.964-3.171-2.444-4.485-5.904-4.362c-6.314-0.573-28.441,2.554-28.947-3.178
		c-1.656-4.379-1.41-14.949,5.417-13.512c6.758,1.11,13.517,0.067,20.275,0.025c3.301-0.02,2.71-2.073,2.254-4.109
		c-2.961-13.233-5.288-26.576-6.521-40.082C11.675-4.26,687.394-35.847,707.022,434.963z M218.199,503.879
		c1.063,1.256,2.044,1.127,2.942,1.113c17.528-0.272,35.056-0.581,52.584-0.834c2.259-0.033,3.674-1.081,4.804-2.938
		c5.265-8.651,11.73-16.413,18.166-24.186c4.583-5.535,4.998-5.71,1.051-11.931c-6.541-10.308-6.53-19.879,0.072-30.413
		c8.4-13.404,17.112-26.564,26.301-39.423c11.046-15.458,22.877-30.316,34.604-45.255c5.414-5.379-4.776-10.728-9.179-12.67
		c-3.183-1.378-5.002,0.737-7.203,2.016c-15.752,10.527-20.579-9.124-31.721-15.111c-11.208-3.103,7.274-8.314-10.506-26.714
		c-2.299,0.078-3.435,2.555-5.691,1.402c-1.546-2.953,1.345-6.395-1.003-10.07c-2.281,1.978-3.465,5.968-6.642,5.386
		c-1.234-0.595-1.063-1.788-0.8-2.792c2.583-9.846,3.651-20.199,9.544-28.95c0.926-1.375,1.39-2.666-0.379-3.681
		c-17.355-14.196-15.439-46.819-13.889-67.289c5.468-28.602,33.858,8.357,41.662,17.97c0.85,1.11,1.421,2.601,3.298,2.936
		c4.258-7.154,6.568-4.472,12.236-0.956c4.15-13.838,9.987-28.077,23.051-35.641c8.99-5.005,17.358-2.529,22.175,6.519
		c8.483,19.331,6.111,41.523-3.235,60.165c14.411,2.548,30.141,0.62,41.68,14.032c-4.632,0.17-2.857,2.693-2.66,4.033
		c-0.715,1.71-2.691,1.433-2.975,3.216c12.699,7.029,4.007,5.21-0.252,10.191c3.918,3.128,8.9,4.474,12.793,7.337
		c-1.531,5.081-11.882,3.93-7.771,11.998c-1.305,2.327-4.358,0.463-5.544,2.58c0.133,2.741,3.66,3.221,3.717,5.885
		c-1.729,2.332-5.426,1.749-6.693,4.594c3.707,5.826,3.494,6.726-3.128,10.112c-6.377,3.26-13.287,4.48-20.383,4.874
		c-1.663,0.092-3.468-0.392-4.942,0.85c1.661,4.857,9.303,13.039,14.08,14.436c17.446,7.039,30.613,22.388,42.412,36.495
		c14.875,28.57,109.85,28.844,97.845,62.852c-6.803,15.403-17.241,28.98-25.602,43.569c-0.93,1.515-2.336,2.961-1.484,5.042
		c1.777,0.577,2.75-0.833,3.97-1.461c3.805-1.96,7.763-2.982,11.892-1.438c6.5,2.615,12.31-4.484,18.88-1.493
		c2.568,1.059,4.821,0.815,7.309,0.066c26.322-7.926,52.624-15.921,79.023-23.583c4.451-1.292,6.199-3.283,6.438-7.879
		c0.894-17.147,1.234-34.332-1.268-51.304C572.589,19.763,27.188,128.89,109.775,502.188c1.109,4.108,2.623,5.923,7.228,5.611
		c11.01-1.843,33.222,2.086,41.1-4.083c10.645-8.609,2.588-22.887-1.343-32.952c-7.713-14.666,3.917-25.879-4.5-30.44
		c-2.523-1.563-5.252-4.49-3.171-8.006c3.286-5.539-3.512-12.169,3.544-16.168c1.308-0.897,2.058-1.932,1.529-3.681
		c-1.626-4.417-0.467-18.85,4.035-20.578c3.684,3.47,3.324,9.148,6.619,13.434c2.06-4.729,0.977-9.899,3.745-13.734
		c6.356,2.826,9.883,14.36,10.447,20.969c0.092,1.636,0.372,3.104,1.572,4.365c4.733,4.973,5.882,10.891,4.055,17.344
		c-1.678,5.944,9.845,10.339,13.955,13.252C220.273,457.642,228.11,482.443,218.199,503.879z M338.448,580.399
		c-17.694,14.66-33.747,31.751-50.909,47.233c-1.234,1.163-2.432,2.858-4.377,2.241c-13.98-4.221-31.208-5.8-39.94-19.169
		c-5.758-10.712,0.407-20.664,11.91-16.256c4.788,1.218,9.323,3.161,13.555,5.674c2.35,1.395,3.917,1.232,5.86-0.771
		c17.942-18.491,35.434-37.396,52.323-56.853c5.283-4.913,7.611-19.987-2.642-19.909c-34.912,0.886-69.841,1.075-104.761,1.529
		c-2.339,0.027-4.639-0.204-4.218,3.427c1.697,17.498,1.132,37.819,19.395,46.691c2.682,2.021,7.449,3.984,6.267,8.182
		c-1.179,3.316-4.078,3.874-7.156,3.867c-22.872-6.112-31.43-36.188-31.612-57.384c0.017-3.441-0.868-4.664-4.46-4.603
		c-26.272,1.503-54.132-1.373-79.619,2.161c62.32,201.32,378.127,233.235,478.361,47.929c-16.478-8.219-35.065-13.065-52.234-20.194
		c-2.654-0.997-4.951-1.237-7.535,0.314c-4.963,3.258-7.706-1.327-11.521-3.732c-3.629,1.993-6.897,5.17-10.842,1.128
		c-1.049-1.049-2.181-0.354-3.239,0.335c-22.91,14.921-51.162,2.266-58.127-18.113c-0.737-2.156-1.873-2.813-4.224-1.874
		c-13.543,5.407-27.661,8.458-42.168,9.627c-3.198,0.258-5.011,1.522-6.269,4.459c-19.918,44.316-41.374,87.969-58.534,133.485
		c-0.908,2.411-2.082,3.312-4.692,2.974c-13.52-2.292-27.919-1.454-40.667-7.011c-4.77-2.328-6.193-5.409-5.043-10.365
		c2.173-11.632,15.964-12.9,25.556-10.086c2.741,0.73,4.088,0.06,4.8-2.863C326.56,628.472,335.507,604.238,338.448,580.399z
		 M641.44,453.964c7.248-2.238,14.318-4.369,21.347-6.625c1.909-0.613,1.74-2.463,1.781-4.052
		C678.071,149.9,292.284,21.681,127.362,264.248c-48.587,70.034-63.698,157.444-43.005,240.069c0.731,3.013,2.185,4.174,5.266,4.007
		c4.638-0.251,9.295-0.117,13.941-0.259c5.712-0.174,5.712-0.232,4.249-5.719C54.208,323.267,219.455,130.41,405.074,161.623
		C548.036,177.355,653.297,312.013,641.44,453.964z M621.014,582.975c-5.491-2.087-10.978-3.948-16.27-6.258
		c-3.936-1.718-6.325-1.151-8.713,2.722c-47.964,73.595-127.632,118.845-215.271,122.336
		c-112.342,5.866-221.149-64.161-262.662-168.709c-3.648-8.767-1.662-7.52-11.352-7.474c-4.981,0.024-10.003-0.384-15.829,0.445
		C172.043,772.98,511.435,783.443,621.014,582.975z M308.774,502.446c10.082,1.277,20.011-0.208,30.155,0.081
		c2.553-0.029,3.329-1.506,3.855-3.665c2.982-12.245,6.069-24.465,9.057-36.709c0.284-1.163,1.097-2.465-0.034-3.703
		c-10.76,6.725-21.038,27.748-35.254,25.268C312.749,481.878,310.619,498.907,308.774,502.446z M182.617,500.187
		c-3.516-2.061-5.934-5.315-9.182-8.159c-2.355,4.574-4.185,8.563-4.857,14.229C172.622,501.305,177.699,501.529,182.617,500.187z"
		/>
</g>
</svg>
